<?xml version="1.0" encoding="UTF-8"?>
<svg xmlns="http://www.w3.org/2000/svg" width="256" height="256" viewBox="0 0 200 200">
    <title>OSCAL Viewer - Icon</title>
    <g fill="#0B1F3B">
        <path fill-rule="evenodd" d="M30 34H170V174H30Z M48 52H152V156H48Z"/>
        <polygon points="30,76 12,104 30,132 30,118 42,104 30,90"/>
        <polygon points="170,88 188,104 170,120"/>
        <rect x="92" y="14" width="46" height="18"/>
        <polygon points="170,34 190,34 170,54"/>
        <polygon points="108,174 148,174 170,152 170,174"/>

        <rect x="62" y="70" width="78" height="18"/>
        <rect x="62" y="88" width="18" height="62"/>
        <rect x="140" y="70" width="18" height="80"/>
        <rect x="62" y="132" width="78" height="18"/>
        <rect x="52" y="100" width="116" height="14"/>

        <path fill-rule="evenodd" d="M110 107a23 23 0 1 0 0.001 0Z M110 107a12 12 0 1 1 -0.001 0Z"/>
        <circle cx="110" cy="107" r="8"/>
    </g>
</svg>
